<mxfile host="Electron" agent="Mozilla/5.0 (Windows NT 10.0; Win64; x64) AppleWebKit/537.36 (KHTML, like Gecko) draw.io/28.0.6 Chrome/138.0.7204.100 Electron/37.2.3 Safari/537.36" version="28.0.6">
  <diagram id="cNMUZzmM3NYGBid4PgVj" name="Homelab Network">
    <mxGraphModel dx="2486" dy="1661" grid="1" gridSize="10" guides="1" tooltips="1" connect="1" arrows="1" fold="1" page="1" pageScale="1" pageWidth="850" pageHeight="1100" math="0" shadow="0">
      <root>
        <mxCell id="0" />
        <mxCell id="1" parent="0" />
        <mxCell id="byq1uEG9fYWj8Y68o5DE-7" value="&lt;div&gt;&lt;div&gt;WAN Interface 192.168.100.1 (Modem Manufacture Hard Coded)&lt;/div&gt;&lt;div&gt;&lt;br&gt;&lt;/div&gt;&lt;div&gt;Management&lt;/div&gt;&lt;div&gt;VLAN 10&lt;/div&gt;&lt;div&gt;10.10.0.1/28&lt;/div&gt;&lt;div&gt;10.10.0.1 Gateway&lt;/div&gt;&lt;div&gt;10.10.0.15 Broadcast&lt;/div&gt;&lt;div&gt;10.10.0.2-10.10.0.14 Range (Unifi Requires this to have DHCP)&lt;/div&gt;&lt;div&gt;255.255.255.240 Subnet Mask&lt;/div&gt;&lt;div&gt;10.10.0.1 DNS&lt;/div&gt;&lt;div&gt;10.10.0.2 Honeypot&lt;/div&gt;&lt;div&gt;&lt;br&gt;&lt;/div&gt;&lt;div&gt;Main&lt;/div&gt;&lt;div&gt;VLAN 20&lt;/div&gt;&lt;div&gt;10.20.0.1/23&lt;/div&gt;&lt;div&gt;10.20.0.1 Gateway&lt;/div&gt;&lt;div&gt;10.20.1.255 Broadcast&lt;/div&gt;&lt;div&gt;10.20.0.11-10.20.1.254 Range&lt;/div&gt;&lt;div&gt;10.20.0.11-10.20.0.254 DHCP&lt;/div&gt;&lt;div&gt;10.20.1.2-10.20.1.254 Static&lt;/div&gt;&lt;div&gt;255.255.254.0 Subnet Mask&lt;/div&gt;&lt;div&gt;&lt;span style=&quot;background-color: transparent; color: light-dark(rgb(0, 0, 0), rgb(255, 255, 255));&quot;&gt;10.20.0.1 DNS&lt;/span&gt;&lt;/div&gt;&lt;div&gt;10.20.0.2 Honeypot&lt;/div&gt;&lt;div&gt;&lt;br&gt;&lt;/div&gt;&lt;div&gt;Homelab Prod&lt;/div&gt;&lt;div&gt;VLAN 30&lt;/div&gt;&lt;div&gt;10.30.0.1/23&lt;/div&gt;&lt;div&gt;10.30.0.1 Gateway&lt;/div&gt;&lt;div&gt;10.30.1.255 Broadcast&lt;/div&gt;&lt;div&gt;10.30.0.11-10.30.1.254 Range&lt;/div&gt;&lt;div&gt;10.30.0.11-10.30.0.254 DHCP&lt;/div&gt;&lt;div&gt;10.30.1.2-10.30.1.254 Static&lt;/div&gt;&lt;div&gt;255.255.254.0 Subnet Mask&lt;/div&gt;&lt;div&gt;10.30.1.124 DNS PiholeL02N01&lt;/div&gt;&lt;div&gt;10.30.1.125 DNS PiholeL02N02&lt;/div&gt;&lt;div&gt;10.30.1.126 DNS PiholeL02N03&lt;/div&gt;&lt;div&gt;10.30.0.2 Honeypot&lt;/div&gt;&lt;div&gt;&lt;br&gt;&lt;/div&gt;&lt;div&gt;Homelab Test&lt;/div&gt;&lt;div&gt;VLAN 40&lt;/div&gt;&lt;div&gt;10.40.0.1/23&lt;/div&gt;&lt;div&gt;10.40.0.1 Gateway&lt;/div&gt;&lt;div&gt;10.40.1.255 Broadcast&lt;/div&gt;&lt;div&gt;10.40.0.11-10.40.1.254 Range&lt;/div&gt;&lt;div&gt;10.40.0.11-10.40.0.254 DHCP&lt;/div&gt;&lt;div&gt;10.40.1.2-10.40.1.254 Static&lt;/div&gt;&lt;div&gt;255.255.254.0 Subnet Mask&lt;/div&gt;&lt;div&gt;10.30.1.124 DNS PiholeL02N01&lt;/div&gt;&lt;div&gt;10.30.1.125 DNS PiholeL02N02&lt;/div&gt;&lt;div&gt;10.30.1.126 DNS PiholeL02N03&lt;/div&gt;&lt;div&gt;10.40.0.2 Honeypot&lt;/div&gt;&lt;div&gt;&lt;br&gt;&lt;/div&gt;&lt;div&gt;Homelab Dev&lt;/div&gt;&lt;div&gt;VLAN 50&lt;/div&gt;&lt;div&gt;10.50.0.1/23&lt;/div&gt;&lt;div&gt;10.50.0.1 Gateway&lt;/div&gt;&lt;div&gt;10.50.1.255 Broadcast&lt;/div&gt;&lt;div&gt;10.50.0.11-10.50.1.254 Range&lt;/div&gt;&lt;div&gt;10.50.0.11-10.50.0.254 DHCP&lt;/div&gt;&lt;div&gt;10.50.1.2-10.50.1.254 Static&lt;/div&gt;&lt;div&gt;255.255.254.0 Subnet Mask&lt;/div&gt;&lt;div&gt;10.30.1.124 DNS PiholeL02N01&lt;/div&gt;&lt;div&gt;10.30.1.125 DNS PiholeL02N02&lt;/div&gt;&lt;div&gt;10.30.1.126 DNS PiholeL02N03&lt;/div&gt;&lt;div&gt;10.50.0.2 Honeypot&lt;/div&gt;&lt;div&gt;&lt;br&gt;&lt;/div&gt;&lt;div&gt;Work&lt;/div&gt;&lt;div&gt;VLAN 60 - Isolated&lt;/div&gt;&lt;div&gt;10.60.0.1/23&lt;/div&gt;&lt;div&gt;10.60.0.1 Gateway&lt;/div&gt;&lt;div&gt;10.60.1.255 Broadcast&lt;/div&gt;&lt;div&gt;10.60.0.11-10.60.1.254 Range&lt;/div&gt;&lt;div&gt;10.60.0.11-10.60.0.254 DHCP&lt;/div&gt;&lt;div&gt;10.60.1.2-10.60.1.254 Static&lt;/div&gt;&lt;div&gt;255.255.254.0 Subnet Mask&lt;/div&gt;&lt;div&gt;10.60.0.1 DNS&lt;/div&gt;&lt;div&gt;10.60.0.2 Honeypot&lt;/div&gt;&lt;div&gt;&lt;br&gt;&lt;/div&gt;&lt;div&gt;IOT&lt;/div&gt;&lt;div&gt;VLAN 70 - Isolated&lt;/div&gt;&lt;div&gt;Multicast DNS Enabled&lt;/div&gt;&lt;div&gt;10.70.0.1/23&lt;/div&gt;&lt;div&gt;10.70.0.1 Gateway&lt;/div&gt;&lt;div&gt;10.70.1.255 Broadcast&lt;/div&gt;&lt;div&gt;10.70.0.11-10.70.1.254 Range&lt;/div&gt;&lt;div&gt;10.70.0.11-10.70.0.254 DHCP&lt;/div&gt;&lt;div&gt;10.70.1.2-10.70.1.254 Static&lt;/div&gt;&lt;div&gt;255.255.254.0 Subnet Mask&lt;/div&gt;&lt;div&gt;10.70.0.1 DNS&lt;/div&gt;&lt;div&gt;10.70.0.2 Honeypot&lt;/div&gt;&lt;div&gt;&lt;br&gt;&lt;/div&gt;&lt;div&gt;DMZ&lt;/div&gt;&lt;div&gt;VLAN 110 - Isolated&lt;/div&gt;&lt;div&gt;10.110.0.1/23&lt;/div&gt;&lt;div&gt;10.110.0.1 Gateway&lt;/div&gt;&lt;div&gt;10.110.1.255 Broadcast&lt;/div&gt;&lt;div&gt;10.110.0.11-10.110.1.254 Range&lt;/div&gt;&lt;div&gt;10.110.0.11-10.110.0.254 DHCP&lt;/div&gt;&lt;div&gt;10.110.1.2-10.110.1.254 Static&lt;/div&gt;&lt;div&gt;255.255.254.0 Subnet Mask&lt;/div&gt;&lt;div&gt;10.110.0.1 DNS&lt;/div&gt;&lt;div&gt;10.110.0.2 Honeypot&lt;/div&gt;&lt;div&gt;&lt;br&gt;&lt;/div&gt;&lt;div&gt;Storage&lt;/div&gt;&lt;div&gt;VLAN 120&lt;/div&gt;&lt;div&gt;10.120.0.1/23&lt;/div&gt;&lt;div&gt;10.120.0.1 Gateway&lt;/div&gt;&lt;div&gt;10.120.1.255 Broadcast&lt;/div&gt;&lt;div&gt;10.120.0.11-10.120.1.254 Range&lt;/div&gt;&lt;div&gt;10.120.0.11-10.120.0.254 DHCP&lt;/div&gt;&lt;div&gt;10.20.1.2-10.20.1.254 Static&lt;/div&gt;&lt;div&gt;255.255.254.0 Subnet Mask&lt;/div&gt;&lt;div&gt;10.120.0.1 DNS&lt;/div&gt;&lt;div&gt;10.120.0.2 Honeypot&lt;/div&gt;&lt;div&gt;&lt;br&gt;&lt;/div&gt;&lt;div&gt;Printing&lt;/div&gt;&lt;div&gt;VLAN 130&lt;/div&gt;&lt;div&gt;10.130.0.1/23&lt;/div&gt;&lt;div&gt;10.130.0.1 Gateway&lt;/div&gt;&lt;div&gt;10.130.1.255 Broadcast&lt;/div&gt;&lt;div&gt;10.130.0.11-10.130.1.254 Range&lt;/div&gt;&lt;div&gt;10.130.0.11-10.130.0.254 DHCP&lt;/div&gt;&lt;div&gt;10.130.1.2-10.130.1.254 Static&lt;/div&gt;&lt;div&gt;255.255.254.0 Subnet Mask&lt;/div&gt;&lt;div&gt;10.130.0.1 DNS&lt;/div&gt;&lt;div&gt;10.130.0.2 Honeypot&lt;/div&gt;&lt;div&gt;&lt;br&gt;&lt;/div&gt;&lt;div&gt;Voice&lt;/div&gt;&lt;div&gt;VLAN 140&lt;/div&gt;&lt;div&gt;10.140.0.1/23&lt;/div&gt;&lt;div&gt;10.140.0.1 Gateway&lt;/div&gt;&lt;div&gt;10.140.1.255 Broadcast&lt;/div&gt;&lt;div&gt;10.140.0.11-10.140.1.254 Range&lt;/div&gt;&lt;div&gt;10.140.0.11-10.140.0.254 DHCP&lt;/div&gt;&lt;div&gt;10.140.1.2-10.140.1.254 Static&lt;/div&gt;&lt;div&gt;255.255.254.0 Subnet Mask&lt;/div&gt;&lt;div&gt;10.140.0.1 DNS&lt;/div&gt;&lt;div&gt;10.140.0.2 Honeypot&lt;/div&gt;&lt;div&gt;&lt;br&gt;&lt;/div&gt;&lt;div&gt;Surveillance&lt;/div&gt;&lt;div&gt;VLAN 150&lt;/div&gt;&lt;div&gt;10.150.0.1/23&lt;/div&gt;&lt;div&gt;10.150.0.1 Gateway&lt;/div&gt;&lt;div&gt;10.150.1.255 Broadcast&lt;/div&gt;&lt;div&gt;10.150.0.11-10.150.1.254 Range&lt;/div&gt;&lt;div&gt;10.150.0.11-10.150.0.254 DHCP&lt;/div&gt;&lt;div&gt;10.150.1.2-10.150.1.254 Static&lt;/div&gt;&lt;div&gt;255.255.254.0 Subnet Mask&lt;/div&gt;&lt;div&gt;10.150.0.1 DNS&lt;/div&gt;&lt;div&gt;10.150.0.2 Honeypot&lt;/div&gt;&lt;div&gt;&lt;br&gt;&lt;/div&gt;&lt;div&gt;Guest&lt;/div&gt;&lt;div&gt;VLAN 240 - Isolated&lt;/div&gt;&lt;div&gt;10.240.0.1/24&lt;/div&gt;&lt;div&gt;10.240.0.1 Gateway&lt;/div&gt;&lt;div&gt;10.240.0.255 Broadcast&lt;/div&gt;&lt;div&gt;10.240.0.6-10.240.0.254 Range (DHCP Only)&lt;/div&gt;&lt;div&gt;255.255.254.0 Subnet Mask&lt;/div&gt;&lt;div&gt;10.240.0.1 DNS&lt;/div&gt;&lt;div&gt;10.240.0.2 Honeypot&lt;/div&gt;&lt;div&gt;&lt;br&gt;&lt;/div&gt;&lt;div&gt;VPN&lt;/div&gt;&lt;div&gt;&lt;span style=&quot;background-color: initial;&quot;&gt;Wireguard&lt;/span&gt;&lt;/div&gt;&lt;div&gt;&lt;span style=&quot;background-color: initial;&quot;&gt;Port 250&lt;/span&gt;&lt;br&gt;&lt;/div&gt;&lt;div&gt;10.250.0.1/29&lt;/div&gt;&lt;div&gt;10.250.0.1 Gateway&lt;/div&gt;&lt;div&gt;10.250.0.7 Broadcast&lt;/div&gt;&lt;div&gt;10.250.0.2-10.250.0.6 Range (DHCP Only)&lt;/div&gt;&lt;div&gt;255.255.255.248 Subnet Mask&lt;/div&gt;&lt;div&gt;10.250.0.1 DNS&lt;br&gt;&lt;/div&gt;&lt;/div&gt;&lt;div&gt;&lt;br&gt;&lt;/div&gt;" style="text;html=1;align=center;verticalAlign=middle;resizable=0;points=[];autosize=1;strokeColor=none;fillColor=none;" parent="1" vertex="1">
          <mxGeometry x="-1220" y="-410" width="370" height="2470" as="geometry" />
        </mxCell>
        <mxCell id="byq1uEG9fYWj8Y68o5DE-16" value="" style="edgeStyle=orthogonalEdgeStyle;rounded=0;orthogonalLoop=1;jettySize=auto;html=1;" parent="1" source="byq1uEG9fYWj8Y68o5DE-12" target="byq1uEG9fYWj8Y68o5DE-15" edge="1">
          <mxGeometry relative="1" as="geometry" />
        </mxCell>
        <mxCell id="byq1uEG9fYWj8Y68o5DE-12" value="&lt;span style=&quot;&quot;&gt;Sonic Fiber to Ethernet Modem&lt;/span&gt;&lt;br style=&quot;&quot;&gt;&lt;span style=&quot;&quot;&gt;No IP&lt;br&gt;&lt;br&gt;&lt;/span&gt;" style="fontColor=#0066CC;verticalAlign=top;verticalLabelPosition=bottom;labelPosition=center;align=center;html=1;outlineConnect=0;fillColor=#CCCCCC;strokeColor=#6881B3;gradientColor=none;gradientDirection=north;strokeWidth=2;shape=mxgraph.networks.modem;" parent="1" vertex="1">
          <mxGeometry x="375.5" y="10" width="100" height="30" as="geometry" />
        </mxCell>
        <mxCell id="byq1uEG9fYWj8Y68o5DE-20" value="" style="edgeStyle=orthogonalEdgeStyle;rounded=0;orthogonalLoop=1;jettySize=auto;html=1;" parent="1" source="byq1uEG9fYWj8Y68o5DE-15" target="byq1uEG9fYWj8Y68o5DE-19" edge="1">
          <mxGeometry relative="1" as="geometry">
            <Array as="points">
              <mxPoint x="500" y="180" />
              <mxPoint x="500" y="180" />
            </Array>
          </mxGeometry>
        </mxCell>
        <mxCell id="byq1uEG9fYWj8Y68o5DE-26" value="" style="edgeStyle=orthogonalEdgeStyle;rounded=0;orthogonalLoop=1;jettySize=auto;html=1;" parent="1" source="byq1uEG9fYWj8Y68o5DE-15" target="byq1uEG9fYWj8Y68o5DE-25" edge="1">
          <mxGeometry relative="1" as="geometry">
            <Array as="points">
              <mxPoint x="330" y="180" />
              <mxPoint x="330" y="180" />
            </Array>
          </mxGeometry>
        </mxCell>
        <mxCell id="byq1uEG9fYWj8Y68o5DE-15" value="&lt;span style=&quot;&quot;&gt;UDM&lt;br&gt;Unifi Dream Machine&lt;/span&gt;&lt;br style=&quot;&quot;&gt;&lt;span style=&quot;&quot;&gt;Router, Switch, AP, IPS, Firewall&lt;/span&gt;&lt;span style=&quot;&quot;&gt;&lt;br&gt;10.10.0.1&lt;br&gt;&lt;/span&gt;" style="fontColor=#0066CC;verticalAlign=top;verticalLabelPosition=bottom;labelPosition=center;align=center;html=1;outlineConnect=0;fillColor=#CCCCCC;strokeColor=#6881B3;gradientColor=none;gradientDirection=north;strokeWidth=2;shape=mxgraph.networks.wireless_modem;" parent="1" vertex="1">
          <mxGeometry x="375" y="110" width="100" height="85" as="geometry" />
        </mxCell>
        <mxCell id="byq1uEG9fYWj8Y68o5DE-22" value="" style="edgeStyle=orthogonalEdgeStyle;rounded=0;orthogonalLoop=1;jettySize=auto;html=1;" parent="1" source="byq1uEG9fYWj8Y68o5DE-19" target="byq1uEG9fYWj8Y68o5DE-21" edge="1">
          <mxGeometry relative="1" as="geometry" />
        </mxCell>
        <mxCell id="byq1uEG9fYWj8Y68o5DE-30" style="edgeStyle=orthogonalEdgeStyle;rounded=0;orthogonalLoop=1;jettySize=auto;html=1;fontColor=#000000;exitX=0.5;exitY=1;exitDx=0;exitDy=0;exitPerimeter=0;entryX=0.5;entryY=0;entryDx=0;entryDy=0;entryPerimeter=0;" parent="1" source="byq1uEG9fYWj8Y68o5DE-19" target="byq1uEG9fYWj8Y68o5DE-27" edge="1">
          <mxGeometry relative="1" as="geometry">
            <Array as="points">
              <mxPoint x="800" y="180" />
              <mxPoint x="930" y="180" />
              <mxPoint x="930" y="620" />
              <mxPoint x="434" y="620" />
            </Array>
          </mxGeometry>
        </mxCell>
        <mxCell id="BS4RaDKqSJQhyY71C0C2-7" style="edgeStyle=orthogonalEdgeStyle;rounded=0;orthogonalLoop=1;jettySize=auto;html=1;entryX=0.5;entryY=0.07;entryDx=0;entryDy=0;entryPerimeter=0;" parent="1" source="byq1uEG9fYWj8Y68o5DE-19" target="byq1uEG9fYWj8Y68o5DE-36" edge="1">
          <mxGeometry relative="1" as="geometry">
            <mxPoint x="1066" y="890" as="targetPoint" />
            <Array as="points">
              <mxPoint x="930" y="180" />
              <mxPoint x="930" y="1105" />
            </Array>
          </mxGeometry>
        </mxCell>
        <mxCell id="eBbDqMRfpNHXUk0T71zT-2" value="" style="edgeStyle=orthogonalEdgeStyle;rounded=0;orthogonalLoop=1;jettySize=auto;html=1;entryX=0.5;entryY=0;entryDx=0;entryDy=0;entryPerimeter=0;" parent="1" source="byq1uEG9fYWj8Y68o5DE-19" target="byq1uEG9fYWj8Y68o5DE-28" edge="1">
          <mxGeometry relative="1" as="geometry">
            <mxPoint x="800" y="275" as="targetPoint" />
            <Array as="points">
              <mxPoint x="930" y="180" />
              <mxPoint x="930" y="620" />
              <mxPoint x="639" y="620" />
            </Array>
          </mxGeometry>
        </mxCell>
        <mxCell id="byq1uEG9fYWj8Y68o5DE-19" value="&lt;font&gt;Switch Office&lt;br&gt;USW- Lite16 Port Switch&lt;br&gt;10.10.0.9&lt;/font&gt;" style="fontColor=#0066CC;verticalAlign=top;verticalLabelPosition=bottom;labelPosition=center;align=center;html=1;outlineConnect=0;fillColor=#CCCCCC;strokeColor=#6881B3;gradientColor=none;gradientDirection=north;strokeWidth=2;shape=mxgraph.networks.router;" parent="1" vertex="1">
          <mxGeometry x="750" y="165" width="100" height="30" as="geometry" />
        </mxCell>
        <mxCell id="byq1uEG9fYWj8Y68o5DE-21" value="&lt;font&gt;Switch Roberts Room&lt;br&gt;USW-Flex-Mini 5 Port Switch&lt;br&gt;10.10.0.14&lt;/font&gt;" style="fontColor=#0066CC;verticalAlign=top;verticalLabelPosition=bottom;labelPosition=center;align=center;html=1;outlineConnect=0;fillColor=#CCCCCC;strokeColor=#6881B3;gradientColor=none;gradientDirection=north;strokeWidth=2;shape=mxgraph.networks.router;" parent="1" vertex="1">
          <mxGeometry x="1090" y="165" width="100" height="30" as="geometry" />
        </mxCell>
        <mxCell id="byq1uEG9fYWj8Y68o5DE-25" value="&lt;font&gt;Kitchen AP&lt;br&gt;UAP-Beacon HD&lt;br&gt;AP Only&lt;br&gt;10.10.0.3&lt;br&gt;&lt;/font&gt;" style="fontColor=#0066CC;verticalAlign=top;verticalLabelPosition=bottom;labelPosition=center;align=center;html=1;outlineConnect=0;fillColor=#CCCCCC;strokeColor=#6881B3;gradientColor=none;gradientDirection=north;strokeWidth=2;shape=mxgraph.networks.wireless_modem;" parent="1" vertex="1">
          <mxGeometry x="160" y="110" width="100" height="85" as="geometry" />
        </mxCell>
        <mxCell id="gduyEnWcz2Fzn5nCceDP-4" style="edgeStyle=orthogonalEdgeStyle;rounded=0;orthogonalLoop=1;jettySize=auto;html=1;fontColor=#0066CC;" parent="1" source="byq1uEG9fYWj8Y68o5DE-27" target="gduyEnWcz2Fzn5nCceDP-3" edge="1">
          <mxGeometry relative="1" as="geometry" />
        </mxCell>
        <mxCell id="QBd9GWMNWFWsj8-kgw60-10" value="" style="edgeStyle=orthogonalEdgeStyle;rounded=0;orthogonalLoop=1;jettySize=auto;html=1;" parent="1" source="byq1uEG9fYWj8Y68o5DE-27" target="mccvxAP2JMF1PTrPAjuZ-13" edge="1">
          <mxGeometry relative="1" as="geometry">
            <Array as="points">
              <mxPoint x="319.25" y="693" />
              <mxPoint x="319.25" y="693" />
            </Array>
          </mxGeometry>
        </mxCell>
        <mxCell id="byq1uEG9fYWj8Y68o5DE-27" value="Synology 8 Bay NAS&lt;br&gt;BLACKBOX&lt;br&gt;DS1819+&lt;br&gt;LAN 1-10.120.1.2&lt;br&gt;LAN 4-10.30.0.x for VMs" style="fontColor=#0066CC;verticalAlign=top;verticalLabelPosition=bottom;labelPosition=center;align=center;html=1;outlineConnect=0;fillColor=#CCCCCC;strokeColor=#6881B3;gradientColor=none;gradientDirection=north;strokeWidth=2;shape=mxgraph.networks.nas_filer;" parent="1" vertex="1">
          <mxGeometry x="384.25" y="675" width="100" height="35" as="geometry" />
        </mxCell>
        <mxCell id="byq1uEG9fYWj8Y68o5DE-36" value="PVE01&lt;br&gt;Proxmox 7&lt;br&gt;10.30.1.4" style="fontColor=#0066CC;verticalAlign=top;verticalLabelPosition=bottom;labelPosition=center;align=center;html=1;outlineConnect=0;fillColor=#CCCCCC;strokeColor=#6881B3;gradientColor=none;gradientDirection=north;strokeWidth=2;shape=mxgraph.networks.pc;" parent="1" vertex="1">
          <mxGeometry x="880" y="1100" width="100" height="70" as="geometry" />
        </mxCell>
        <mxCell id="OmpzUFn_DjldYU10VBPL-18" value="" style="edgeStyle=orthogonalEdgeStyle;rounded=0;orthogonalLoop=1;jettySize=auto;html=1;entryX=0.5;entryY=0;entryDx=0;entryDy=0;entryPerimeter=0;exitX=0.91;exitY=0.5;exitDx=0;exitDy=0;exitPerimeter=0;" parent="1" source="byq1uEG9fYWj8Y68o5DE-42" target="OmpzUFn_DjldYU10VBPL-14" edge="1">
          <mxGeometry relative="1" as="geometry">
            <mxPoint x="425.5" y="-195" as="targetPoint" />
            <Array as="points">
              <mxPoint x="307" y="-170" />
              <mxPoint x="520" y="-170" />
              <mxPoint x="520" y="-360" />
              <mxPoint x="610" y="-360" />
            </Array>
            <mxPoint x="420" y="-170" as="sourcePoint" />
          </mxGeometry>
        </mxCell>
        <mxCell id="iQlbERAXVW7_SnEdFQ_i-21" value="" style="edgeStyle=orthogonalEdgeStyle;rounded=0;orthogonalLoop=1;jettySize=auto;html=1;" parent="1" source="byq1uEG9fYWj8Y68o5DE-42" edge="1">
          <mxGeometry relative="1" as="geometry">
            <mxPoint x="380" y="20" as="targetPoint" />
            <Array as="points">
              <mxPoint x="270" y="20" />
            </Array>
          </mxGeometry>
        </mxCell>
        <mxCell id="byq1uEG9fYWj8Y68o5DE-42" value="Internet" style="html=1;outlineConnect=0;fillColor=#CCCCCC;strokeColor=#6881B3;gradientColor=none;gradientDirection=north;strokeWidth=2;shape=mxgraph.networks.cloud;fontColor=#0066CC;" parent="1" vertex="1">
          <mxGeometry x="225" y="-200" width="90" height="50" as="geometry" />
        </mxCell>
        <mxCell id="byq1uEG9fYWj8Y68o5DE-28" value="Synology 8 Bay NAS&lt;br&gt;BLACKBOXExt&lt;br&gt;DS1821+&lt;br&gt;LAN 1-10.120.1.4&lt;br&gt;URL: gclbbext.synology.me&lt;br&gt;Port Forward: 5510 for Endpoint Backups" style="fontColor=#0066CC;verticalAlign=top;verticalLabelPosition=bottom;labelPosition=center;align=center;html=1;outlineConnect=0;fillColor=#CCCCCC;strokeColor=#6881B3;gradientColor=none;gradientDirection=north;strokeWidth=2;shape=mxgraph.networks.nas_filer;" parent="1" vertex="1">
          <mxGeometry x="589.25" y="675" width="100" height="35" as="geometry" />
        </mxCell>
        <mxCell id="gduyEnWcz2Fzn5nCceDP-3" value="Backblaze B2&lt;br&gt;S3 Backup" style="html=1;outlineConnect=0;fillColor=#CCCCCC;strokeColor=#6881B3;gradientColor=none;gradientDirection=north;strokeWidth=2;shape=mxgraph.networks.cloud;fontColor=#0066CC;" parent="1" vertex="1">
          <mxGeometry x="354.5" y="860" width="159.5" height="100" as="geometry" />
        </mxCell>
        <mxCell id="Kpg3dx4X_OknJsl86Vrg-1" value="&lt;div&gt;&lt;div&gt;&lt;span style=&quot;background-color: initial;&quot;&gt;Unused&lt;/span&gt;&lt;br&gt;&lt;/div&gt;&lt;/div&gt;&lt;div&gt;&lt;span style=&quot;background-color: initial;&quot;&gt;ID: 100&lt;/span&gt;&lt;br&gt;&lt;/div&gt;&lt;div&gt;&lt;/div&gt;&lt;br&gt;&lt;div&gt;&lt;span style=&quot;background-color: initial;&quot;&gt;TdarrN01&lt;/span&gt;&lt;/div&gt;&lt;div&gt;&lt;span style=&quot;background-color: initial;&quot;&gt;ID: 101&lt;/span&gt;&lt;br&gt;&lt;/div&gt;&lt;div&gt;OS: Windows Server 2022&lt;/div&gt;&lt;div&gt;&lt;/div&gt;&lt;br&gt;&lt;div&gt;DDHL01&lt;/div&gt;&lt;div&gt;ID: 102&lt;/div&gt;OS: Windows 11&lt;div&gt;&lt;/div&gt;&lt;br&gt;&lt;div&gt;Hydrus&lt;/div&gt;&lt;div&gt;ID: 103&lt;/div&gt;OS: Windows 11&lt;br&gt;&lt;br&gt;&lt;div&gt;Curecoin&lt;/div&gt;&lt;div&gt;ID: 104&lt;/div&gt;OS: Windows 11&lt;br&gt;&lt;br&gt;&lt;div&gt;FTM&lt;/div&gt;&lt;div&gt;ID: 105&lt;/div&gt;OS: Windows 11&lt;br&gt;&lt;br&gt;&lt;div&gt;Steam&lt;/div&gt;&lt;div&gt;ID: 106&lt;/div&gt;OS: Windows 11&lt;br&gt;iSCSI S: Drive&lt;br&gt;&lt;br&gt;&lt;div&gt;GMR&lt;/div&gt;&lt;div&gt;ID: 107&lt;/div&gt;OS: Windows 11&lt;br&gt;&lt;br&gt;&lt;div&gt;EXO&lt;/div&gt;&lt;div&gt;ID: 108&lt;/div&gt;OS: Windows 11&lt;br&gt;&lt;br&gt;AmazonRobert&lt;br&gt;ID: 109&lt;br&gt;OS: WIndows Server 2022&lt;br&gt;&lt;br&gt;AmazonRobin&lt;br&gt;ID: 110&lt;br&gt;OS: WIndows Server 2022&amp;nbsp;&lt;br&gt;&lt;br&gt;SonarrTV&lt;br&gt;ID: 111&lt;br&gt;&lt;div&gt;OS: WIndows Server 2022&lt;br&gt;&lt;/div&gt;&lt;div&gt;Host IP:&amp;nbsp;&lt;br&gt;&lt;/div&gt;10.30.1.11&lt;br&gt;App URL: http://10.30.1.11:8989&lt;br&gt;&lt;br&gt;Bazarr&lt;br&gt;ID: 112&lt;br&gt;&lt;div&gt;OS: WIndows Server 2022&lt;br&gt;&lt;/div&gt;&lt;div&gt;Host IP:&amp;nbsp;&lt;br&gt;&lt;/div&gt;10.30.1.14&lt;br&gt;App URL: http://10.30.1.14:6767&lt;br&gt;&lt;br&gt;Notifiarr&lt;br&gt;ID: 113&lt;br&gt;&lt;div&gt;OS: WIndows Server 2022&amp;nbsp;&lt;br&gt;&lt;/div&gt;&lt;div&gt;&lt;/div&gt;&lt;div&gt;Host IP:&amp;nbsp;&lt;br&gt;&lt;/div&gt;10.30.1.12&lt;br&gt;&lt;br&gt;&lt;div&gt;TdarrServer&lt;/div&gt;&lt;div&gt;ID: 114&lt;/div&gt;&lt;div&gt;OS: WIndows Server 2022&lt;br&gt;&lt;/div&gt;&lt;div&gt;&lt;span style=&quot;background-color: initial;&quot;&gt;Host IP:&amp;nbsp;&lt;/span&gt;&lt;/div&gt;10.30.1.10&lt;div&gt;App URL:&amp;nbsp;http://10.30.1.10:8265&lt;/div&gt;&lt;div&gt;&lt;/div&gt;&lt;br&gt;Mailstore01&lt;br&gt;ID: 115&lt;br&gt;OS: WIndows Server 2022&lt;div&gt;&lt;br&gt;&lt;/div&gt;&lt;div&gt;NameCheapDNNS&lt;br&gt;ID: 116&lt;br&gt;OS: WIndows Server 2022&lt;/div&gt;&lt;div&gt;&lt;br&gt;&lt;/div&gt;&lt;div&gt;&lt;div&gt;SonarrRobert&lt;br&gt;ID: 117&lt;br&gt;OS: WIndows Server 2022&lt;/div&gt;&lt;div&gt;Host IP:&lt;/div&gt;&lt;/div&gt;&lt;div&gt;10.30.1.17&lt;/div&gt;&lt;div&gt;&lt;br&gt;&lt;/div&gt;&lt;div&gt;&lt;div&gt;RadarrRobert&lt;br&gt;ID: 118&lt;br&gt;OS: WIndows Server 2022&lt;/div&gt;&lt;div&gt;Host IP:&lt;/div&gt;&lt;/div&gt;&lt;div&gt;10.30.1.18&lt;/div&gt;" style="rounded=0;whiteSpace=wrap;html=1;" parent="1" vertex="1">
          <mxGeometry x="-153.25" y="1230" width="210" height="1650" as="geometry" />
        </mxCell>
        <mxCell id="7Bw_8spoBw8nkZAHP8sJ-3" value="&lt;div&gt;Unused&lt;br&gt;ID: 100&lt;br&gt;&lt;/div&gt;&lt;div&gt;&lt;/div&gt;&lt;br&gt;&lt;div&gt;&lt;span style=&quot;background-color: initial;&quot;&gt;TdarrN02&lt;/span&gt;&lt;/div&gt;&lt;div&gt;&lt;span style=&quot;background-color: initial;&quot;&gt;ID: 101&lt;/span&gt;&lt;br&gt;&lt;/div&gt;&lt;div&gt;OS: Windows Server 2022&lt;/div&gt;&lt;div&gt;&lt;/div&gt;&lt;br&gt;&lt;div&gt;DDHL02&lt;/div&gt;&lt;div&gt;ID: 102&lt;/div&gt;OS: Windows 11&lt;br&gt;&lt;br&gt;Tivo&lt;br&gt;ID: 103&lt;br&gt;&lt;br&gt;Filezilla&lt;br&gt;ID: 104&lt;br&gt;&lt;br&gt;RadarrMov&lt;br&gt;ID: 105&lt;br&gt;&lt;div&gt;Host IP:&amp;nbsp;&lt;br&gt;&lt;/div&gt;10.30.1.13&lt;br&gt;App URL: http://10.30.1.13:7878&lt;br&gt;&lt;br&gt;JDownloader&lt;br&gt;ID: 106&lt;br&gt;&lt;br&gt;Jellyfin&lt;br&gt;ID: 107&lt;br&gt;&lt;div&gt;OS: WIndows Server 2022&lt;br&gt;&lt;/div&gt;&lt;div&gt;Host IP:&amp;nbsp;&lt;br&gt;&lt;/div&gt;10.30.1.15&lt;br&gt;App URL: http://10.30.1.15:8096&lt;br&gt;App URL: https://jelly.greycloudlabs.com - Nginx with SSL from Lets Encrypt&lt;br&gt;&lt;br&gt;Mailstore 02&lt;br&gt;ID: 108&lt;br&gt;OS: WIndows Server 2022&lt;br&gt;&lt;br&gt;Mailstore 03&lt;br&gt;ID: 109&lt;br&gt;OS: WIndows Server 2022&lt;br&gt;&lt;br&gt;Mailstore 04&lt;br&gt;ID:&amp;nbsp;110&lt;br&gt;OS: WIndows Server 2022&lt;br&gt;&lt;br&gt;Mailstore 05&lt;br&gt;ID:&amp;nbsp;111&lt;br&gt;OS: WIndows Server 2022&lt;br&gt;&lt;br&gt;YoutubeDL&lt;br&gt;ID:&amp;nbsp;112&lt;br&gt;OS: WIndows Server 2022&lt;br&gt;&lt;br&gt;BTPriTV&lt;br&gt;ID:&amp;nbsp;113&lt;br&gt;OS: WIndows Server 2022&lt;br&gt;&lt;br&gt;BTPriMov&lt;br&gt;ID:&amp;nbsp;114&lt;br&gt;OS: WIndows Server 2022&lt;br&gt;&lt;br&gt;&lt;div&gt;BTPubOth&lt;br&gt;ID:&amp;nbsp;118&lt;br&gt;OS: WIndows Server 2022&lt;br&gt;&lt;br&gt;IIS01&lt;br&gt;ID:&amp;nbsp;122&lt;br&gt;Host IP: 10.30.1.16&lt;br&gt;OS: WIndows Server 2022&lt;div&gt;Websites Hosted (&lt;span style=&quot;background-color: initial;&quot;&gt;Nginx with SSL from Lets Encrypt&lt;/span&gt;&lt;span style=&quot;background-color: initial;&quot;&gt;):&amp;nbsp;&lt;br&gt;https://mainygamers.com/&lt;/span&gt;&lt;/div&gt;&lt;div&gt;&lt;span style=&quot;background-color: initial;&quot;&gt;PORT 84&lt;/span&gt;&lt;/div&gt;&lt;div&gt;&lt;span style=&quot;background-color: initial;&quot;&gt;&lt;br&gt;https://travelmakerbyrobin.com/ PORT 85&lt;br&gt;&lt;/span&gt;&lt;/div&gt;&lt;div&gt;&lt;span style=&quot;background-color: initial;&quot;&gt;&lt;br&gt;&lt;/span&gt;&lt;/div&gt;&lt;div&gt;&lt;span style=&quot;background-color: initial;&quot;&gt;https://vinnysminimoves.com/&lt;br&gt;&lt;/span&gt;&lt;/div&gt;&lt;div&gt;&lt;span style=&quot;background-color: initial;&quot;&gt;PORT 83&lt;/span&gt;&lt;/div&gt;&lt;div&gt;&lt;br&gt;&lt;/div&gt;&lt;div&gt;&lt;span style=&quot;background-color: initial;&quot;&gt;https://greycloudlabs.com/&lt;/span&gt;&lt;/div&gt;&lt;div&gt;&lt;span style=&quot;background-color: initial;&quot;&gt;PORT 80&lt;br&gt;&lt;/span&gt;&lt;/div&gt;&lt;div&gt;&lt;br&gt;&lt;/div&gt;&lt;div&gt;&lt;span style=&quot;background-color: initial;&quot;&gt;https://vault.greycloudlabs.com/&lt;/span&gt;&lt;/div&gt;&lt;div&gt;PORT 81&lt;/div&gt;&lt;/div&gt;" style="rounded=0;whiteSpace=wrap;html=1;" parent="1" vertex="1">
          <mxGeometry x="76.75" y="1229" width="200" height="1651" as="geometry" />
        </mxCell>
        <mxCell id="OmpzUFn_DjldYU10VBPL-14" value="Seedbox&lt;br&gt;Ubuntu 18.04&lt;br&gt;23.nl134.seedit4.me&lt;br&gt;193.163.71.164&lt;br&gt;Crowdsec IPS Installed" style="fontColor=#0066CC;verticalAlign=top;verticalLabelPosition=bottom;labelPosition=center;align=center;html=1;outlineConnect=0;fillColor=#CCCCCC;strokeColor=#6881B3;gradientColor=none;gradientDirection=north;strokeWidth=2;shape=mxgraph.networks.virtual_pc;" parent="1" vertex="1">
          <mxGeometry x="552.5" y="-340" width="115" height="85" as="geometry" />
        </mxCell>
        <mxCell id="mccvxAP2JMF1PTrPAjuZ-13" value="PBS01&lt;br&gt;Proxmox Backup Server&lt;br&gt;10.30.1.5" style="fontColor=#0066CC;verticalAlign=top;verticalLabelPosition=bottom;labelPosition=center;align=center;html=1;outlineConnect=0;fillColor=#CCCCCC;strokeColor=#6881B3;gradientColor=none;gradientDirection=north;strokeWidth=2;shape=mxgraph.networks.virtual_pc;" parent="1" vertex="1">
          <mxGeometry x="161.75" y="650" width="115" height="85" as="geometry" />
        </mxCell>
        <mxCell id="ga4F8qy1s8r-rcjLFQCE-1" value="&lt;div&gt;&lt;div&gt;&lt;div&gt;&lt;span style=&quot;background-color: initial;&quot;&gt;MyIP&lt;/span&gt;&lt;br&gt;&lt;/div&gt;&lt;/div&gt;&lt;div&gt;&lt;div&gt;ID: 102&lt;/div&gt;&lt;div&gt;OS: LXC Docker&lt;/div&gt;&lt;div&gt;Host IP: 10.30.1.102/24&lt;/div&gt;&lt;div&gt;Portainer IP: 10.30.1.102:9443&lt;/div&gt;&lt;div&gt;App URL: http://10.30.1.102:18966/#/&lt;/div&gt;&lt;div&gt;App URL: https://myip.greycloudlabs.com/#/&amp;nbsp;&lt;span style=&quot;background-color: transparent; color: light-dark(rgb(0, 0, 0), rgb(255, 255, 255));&quot;&gt;&amp;nbsp;&lt;/span&gt;&lt;span style=&quot;background-color: transparent; color: light-dark(rgb(0, 0, 0), rgb(255, 255, 255));&quot;&gt;- Nginx with SSL from Lets Encrypt&lt;/span&gt;&lt;/div&gt;&lt;/div&gt;&lt;div&gt;&lt;br&gt;&lt;/div&gt;&lt;div&gt;&lt;div&gt;Jellyseerr&lt;br&gt;&lt;/div&gt;&lt;div&gt;ID: 103&lt;/div&gt;&lt;div&gt;OS: LXC Docker&lt;/div&gt;&lt;div&gt;Host IP: 10.30.1.103/24&lt;/div&gt;&lt;div&gt;Portainer IP: 10.30.1.103:9443&lt;/div&gt;&lt;div&gt;App URL:&amp;nbsp;http://10.30.1.103:5055/&lt;/div&gt;&lt;div&gt;App URL: https://jellyrequest.greycloudlabs.com/&amp;nbsp;&lt;span style=&quot;color: light-dark(rgb(0, 0, 0), rgb(255, 255, 255)); background-color: transparent;&quot;&gt;&amp;nbsp;&lt;/span&gt;&lt;span style=&quot;color: light-dark(rgb(0, 0, 0), rgb(255, 255, 255)); background-color: transparent;&quot;&gt;- Nginx with SSL from Lets Encrypt&lt;/span&gt;&lt;/div&gt;&lt;/div&gt;&lt;div&gt;&lt;span style=&quot;color: light-dark(rgb(0, 0, 0), rgb(255, 255, 255)); background-color: transparent;&quot;&gt;&lt;br&gt;&lt;/span&gt;&lt;/div&gt;&lt;div&gt;&lt;div&gt;&lt;span style=&quot;background-color: initial;&quot;&gt;Metube&lt;/span&gt;&lt;/div&gt;&lt;div&gt;&lt;span style=&quot;background-color: initial;&quot;&gt;ID: 104&lt;/span&gt;&lt;br&gt;&lt;/div&gt;&lt;div&gt;OS: LXC Docker&lt;/div&gt;&lt;div&gt;Host IP: 10.30.1.104/24&lt;/div&gt;&lt;div&gt;Portainer IP: 10.30.1.104:9443&lt;/div&gt;&lt;div&gt;App URL:&amp;nbsp;http://10.30.1.104:8081/&lt;/div&gt;&lt;/div&gt;&lt;div&gt;App URL: https://metube.greycloudlabs.com/&amp;nbsp;&lt;span style=&quot;color: light-dark(rgb(0, 0, 0), rgb(255, 255, 255)); background-color: transparent;&quot;&gt;&amp;nbsp;&lt;/span&gt;&lt;span style=&quot;color: light-dark(rgb(0, 0, 0), rgb(255, 255, 255)); background-color: transparent;&quot;&gt;- Nginx with SSL from Lets Encrypt&lt;/span&gt;&lt;/div&gt;&lt;div&gt;&lt;br&gt;&lt;/div&gt;&lt;div&gt;&lt;div&gt;&lt;span style=&quot;background-color: initial;&quot;&gt;Huntarr&lt;/span&gt;&lt;/div&gt;&lt;div&gt;&lt;span style=&quot;background-color: initial;&quot;&gt;ID: 105&lt;/span&gt;&lt;br&gt;&lt;/div&gt;&lt;div&gt;OS: LXC Docker&lt;/div&gt;&lt;div&gt;Host IP: 10.30.1.105/24&lt;/div&gt;&lt;div&gt;Portainer IP: 10.30.1.105:9443&lt;/div&gt;&lt;/div&gt;&lt;div&gt;App URL: http://10.30.1.105:9705/&lt;/div&gt;&lt;div&gt;&lt;br&gt;&lt;/div&gt;&lt;div&gt;&lt;div&gt;&lt;span style=&quot;background-color: initial;&quot;&gt;Speedtest&lt;/span&gt;&lt;/div&gt;&lt;div&gt;&lt;span style=&quot;background-color: initial;&quot;&gt;ID: 106&lt;/span&gt;&lt;br&gt;&lt;/div&gt;&lt;div&gt;OS: LXC Docker&lt;/div&gt;&lt;div&gt;Host IP: 10.30.1.106/24&lt;/div&gt;&lt;div&gt;Portainer IP: 10.30.1.106:9443&lt;/div&gt;&lt;div&gt;App URL:&amp;nbsp;http://10.30.1.106/&lt;/div&gt;&lt;/div&gt;&lt;div&gt;App URL: https://speedtest.greycloudlabs.com/&amp;nbsp;&lt;span style=&quot;color: light-dark(rgb(0, 0, 0), rgb(255, 255, 255)); background-color: transparent;&quot;&gt;&amp;nbsp;&lt;/span&gt;&lt;span style=&quot;color: light-dark(rgb(0, 0, 0), rgb(255, 255, 255)); background-color: transparent;&quot;&gt;- Nginx with SSL from Lets Encrypt&lt;/span&gt;&lt;/div&gt;&lt;div&gt;&lt;br&gt;&lt;/div&gt;&lt;div&gt;&lt;div&gt;&lt;div&gt;&lt;span style=&quot;background-color: initial;&quot;&gt;Free-Games-Claimer&lt;/span&gt;&lt;/div&gt;&lt;div&gt;&lt;span style=&quot;background-color: initial;&quot;&gt;ID: 107&lt;/span&gt;&lt;br&gt;&lt;/div&gt;&lt;div&gt;OS: LXC Docker&lt;/div&gt;&lt;div&gt;Host IP: 10.30.1.107/24&lt;/div&gt;&lt;div&gt;Portainer IP: 10.30.1.107:9443&lt;/div&gt;&lt;div&gt;App URL:&amp;nbsp;http://10.30.1.107:6080/&lt;/div&gt;&lt;/div&gt;&lt;div&gt;&lt;br&gt;&lt;/div&gt;&lt;/div&gt;&lt;div&gt;Autobrr&lt;/div&gt;&lt;div&gt;ID: 108&lt;/div&gt;&lt;div&gt;OS: LXC&lt;/div&gt;&lt;div&gt;Host IP: 10.30.1.108/24&lt;/div&gt;&lt;div&gt;&lt;div&gt;App URL:&amp;nbsp;http://10.30.1.108:7474/&lt;/div&gt;&lt;/div&gt;&lt;div&gt;&lt;br&gt;&lt;/div&gt;&lt;div&gt;Cloudflare-DDNS&lt;br&gt;&lt;/div&gt;&lt;div&gt;ID: 109&lt;/div&gt;&lt;div&gt;OS: LXC Docker&lt;/div&gt;&lt;div&gt;Host IP: 10.30.1.109/24&lt;/div&gt;&lt;div&gt;Portainer IP: 10.30.1.109:9000&lt;/div&gt;&lt;div&gt;&lt;br&gt;&lt;/div&gt;&lt;/div&gt;&lt;div&gt;&lt;div&gt;Gitea&lt;/div&gt;&lt;div&gt;ID: 110&lt;/div&gt;&lt;div&gt;OS: LXC&lt;/div&gt;&lt;div&gt;Host IP: 10.30.1.110/24&lt;/div&gt;&lt;/div&gt;&lt;div&gt;App URL:&amp;nbsp;http://10.30.1.110:3000/&lt;/div&gt;&lt;div&gt;&lt;br&gt;&lt;/div&gt;&lt;div&gt;Cloudflare-Tunnel01&lt;/div&gt;&lt;div&gt;ID: 111&lt;/div&gt;&lt;div&gt;OS: LXC Docker&lt;/div&gt;&lt;div&gt;Host IP: 10.30.1.111/24&lt;/div&gt;&lt;div&gt;Portainer IP: 10.30.1.111:9000&lt;/div&gt;&lt;div&gt;&lt;br&gt;&lt;/div&gt;&lt;div&gt;Cloudflare-Tunnel02&lt;/div&gt;&lt;div&gt;ID: 112&lt;/div&gt;&lt;div&gt;OS: LXC Docker&lt;/div&gt;&lt;div&gt;Host IP: 10.30.1.112/24&lt;/div&gt;&lt;div&gt;Portainer IP: 10.30.1.112:9000&lt;/div&gt;&lt;div&gt;&lt;br&gt;&lt;/div&gt;&lt;div&gt;Cloudflare-Tunnel03&lt;/div&gt;&lt;div&gt;ID: 113&lt;/div&gt;&lt;div&gt;OS: LXC Docker&lt;/div&gt;&lt;div&gt;Host IP: 10.30.1.113/24&lt;/div&gt;&lt;div&gt;Portainer IP: 10.30.1.113:9000&lt;/div&gt;&lt;div&gt;&lt;br&gt;&lt;/div&gt;&lt;div&gt;&lt;div&gt;Stirling-PDF&lt;/div&gt;&lt;div&gt;ID: 114&lt;/div&gt;&lt;div&gt;OS: LXC&lt;/div&gt;&lt;div&gt;Host IP: 10.30.1.114/24&lt;/div&gt;&lt;div&gt;App URL: http://10.30.1.114:8080&lt;/div&gt;&lt;div&gt;App URL: https://pdf.greycloudlabs.com - Nginx with SSL from Lets Encrypt&lt;br&gt;&lt;/div&gt;&lt;/div&gt;&lt;div&gt;&lt;br&gt;&lt;/div&gt;&lt;div&gt;&lt;div&gt;Uptimekuma&lt;/div&gt;&lt;div&gt;ID: 115&lt;/div&gt;&lt;div&gt;OS: LXC&lt;/div&gt;&lt;div&gt;Host IP: 10.30.1.115/24&lt;/div&gt;&lt;div&gt;App URL: http://10.30.1.115:3001&lt;/div&gt;&lt;/div&gt;&lt;div&gt;&lt;div&gt;App URL: https://status.greycloudlabs.com/ - Nginx with SSL from Lets Encrypt&lt;/div&gt;&lt;/div&gt;&lt;div&gt;&lt;br&gt;&lt;/div&gt;&lt;div&gt;Nginx&lt;/div&gt;&lt;div&gt;ID: 116&lt;/div&gt;&lt;div&gt;OS: LXC&lt;/div&gt;&lt;div&gt;Host IP: 10.30.1.116/24&lt;/div&gt;&lt;div&gt;Ports Forwarded: 80 &amp;amp; 443 TCP &amp;amp; UDP&lt;/div&gt;&lt;div&gt;App URL: http://10.30.1.116:81&lt;/div&gt;&lt;div&gt;Crowdsec IPS Installed&lt;br&gt;&lt;/div&gt;&lt;div&gt;&lt;br&gt;&lt;/div&gt;&lt;div&gt;&lt;div&gt;&lt;span style=&quot;background-color: initial;&quot;&gt;Flaresolverr&lt;/span&gt;&lt;/div&gt;&lt;div&gt;&lt;span style=&quot;background-color: initial;&quot;&gt;ID: 117&lt;/span&gt;&lt;br&gt;&lt;/div&gt;&lt;div&gt;&lt;div&gt;OS: LXC&lt;/div&gt;&lt;div&gt;Host IP: 10.30.1.117/24&lt;/div&gt;&lt;div&gt;App URL: http://10.30.1.117:8191&lt;/div&gt;&lt;/div&gt;&lt;/div&gt;&lt;div&gt;&lt;br&gt;&lt;/div&gt;&lt;div&gt;Jackett&lt;/div&gt;&lt;div&gt;ID: 119&lt;/div&gt;&lt;div&gt;OS: LXC Docker&lt;/div&gt;&lt;div&gt;Host IP: 10.30.1.119/24&lt;/div&gt;&lt;div&gt;Portainer IP: 10.30.1.119:9000&lt;/div&gt;&lt;div&gt;App URL: http://10.30.1.119:9117&lt;/div&gt;&lt;div&gt;&lt;br&gt;&lt;/div&gt;" style="rounded=0;whiteSpace=wrap;html=1;" parent="1" vertex="1">
          <mxGeometry x="653.75" y="1230" width="272.5" height="1770" as="geometry" />
        </mxCell>
        <mxCell id="M1RaYH7zU4HHPou2nE0r-1" value="&lt;div&gt;&lt;div&gt;&lt;span style=&quot;background-color: initial;&quot;&gt;PiholeL01N01&lt;/span&gt;&lt;br&gt;&lt;/div&gt;&lt;div&gt;ID: 121&lt;/div&gt;&lt;div&gt;OS: LXC Debian&lt;/div&gt;&lt;div&gt;Host IP: 10.30.1.121/24&lt;/div&gt;&lt;div&gt;App URL: http://10.30.1.121/admin/login&lt;/div&gt;&lt;div&gt;&lt;br&gt;&lt;/div&gt;&lt;div&gt;PiholeL01N02&lt;/div&gt;&lt;div&gt;ID: 122&lt;/div&gt;&lt;div&gt;OS:&amp;nbsp;&lt;span style=&quot;background-color: initial;&quot;&gt;LXC Debian&lt;/span&gt;&lt;/div&gt;&lt;div&gt;Host IP: 10.30.1.122/24&lt;/div&gt;&lt;div&gt;App URL: http://10.30.1.122/admin/login&lt;/div&gt;&lt;div&gt;&lt;br&gt;&lt;/div&gt;&lt;div&gt;PiholeL01N03&lt;/div&gt;&lt;div&gt;ID: 123&lt;/div&gt;&lt;div&gt;OS:&amp;nbsp;&lt;span style=&quot;background-color: initial;&quot;&gt;LXC&amp;nbsp;&lt;/span&gt;&lt;span style=&quot;background-color: initial;&quot;&gt;Debian&lt;/span&gt;&lt;/div&gt;&lt;div&gt;Host IP: 10.30.1.123/24&lt;/div&gt;&lt;div&gt;App URL: http://10.30.1.123/admin/login&lt;/div&gt;&lt;div&gt;&lt;br&gt;&lt;/div&gt;&lt;div&gt;PiholeL02N01&lt;/div&gt;&lt;div&gt;ID: 124&lt;/div&gt;&lt;div&gt;OS:&amp;nbsp;&lt;span style=&quot;background-color: initial;&quot;&gt;LXC&amp;nbsp;&lt;/span&gt;&lt;span style=&quot;background-color: initial;&quot;&gt;Debian&lt;/span&gt;&lt;/div&gt;&lt;div&gt;Host IP: 10.30.1.124/24&lt;/div&gt;&lt;div&gt;App URL: http://10.30.1.124/admin/login&lt;/div&gt;&lt;div&gt;&lt;br&gt;&lt;/div&gt;&lt;div&gt;PiholeL02N02&lt;/div&gt;&lt;div&gt;ID: 125&lt;/div&gt;&lt;div&gt;OS:&amp;nbsp;&lt;span style=&quot;background-color: initial;&quot;&gt;LXC&amp;nbsp;&lt;/span&gt;&lt;span style=&quot;background-color: initial;&quot;&gt;Debian&lt;/span&gt;&lt;/div&gt;&lt;div&gt;Host IP: 10.30.1.125/24&lt;/div&gt;&lt;div&gt;App URL: http://10.30.1.125/admin/login&lt;/div&gt;&lt;div&gt;&lt;br&gt;&lt;/div&gt;&lt;div&gt;PiholeL02N03&lt;/div&gt;&lt;div&gt;ID: 126&lt;/div&gt;&lt;div&gt;OS:&amp;nbsp;&lt;span style=&quot;background-color: initial;&quot;&gt;LXC&amp;nbsp;&lt;/span&gt;&lt;span style=&quot;background-color: initial;&quot;&gt;Debian&lt;/span&gt;&lt;/div&gt;&lt;div&gt;Host IP: 10.30.1.126/24&lt;/div&gt;&lt;div&gt;App URL: http://10.30.1.126/admin/login&lt;br&gt;&lt;/div&gt;&lt;/div&gt;&lt;div&gt;&lt;br&gt;&lt;/div&gt;" style="rounded=0;whiteSpace=wrap;html=1;" parent="1" vertex="1">
          <mxGeometry x="940" y="1229" width="272.5" height="971" as="geometry" />
        </mxCell>
        <mxCell id="ehs038F9ZhZ1HlwXPJP6-1" value="Office Printer&lt;br&gt;10.20.1.2" style="fontColor=#0066CC;verticalAlign=top;verticalLabelPosition=bottom;labelPosition=center;align=center;html=1;outlineConnect=0;fillColor=#CCCCCC;strokeColor=#6881B3;gradientColor=none;gradientDirection=north;strokeWidth=2;shape=mxgraph.networks.printer;" parent="1" vertex="1">
          <mxGeometry x="580" y="20" width="100" height="100" as="geometry" />
        </mxCell>
        <mxCell id="eBbDqMRfpNHXUk0T71zT-3" value="Port 01 - UDM - All&lt;br&gt;Port 02 - Switch Roberts Room -All&lt;br&gt;Port 03 - BLACKBOX Port 1 - Storage&lt;br&gt;Port 04 - BLACKBOX Port 4 - Homelab Prod&lt;br&gt;Port 05 - DISABLED&lt;br&gt;Port 06 - HyperV01 - Homelab Prod&lt;br&gt;Port 07 - iMazing - Main&lt;br&gt;Port 08 - PVE01 - Homelab Prod&lt;br&gt;Port 09 - Robin Laptop - Main&lt;br&gt;Port 10 - BLACKBOX External- Storage&lt;br&gt;Port 11 -&amp;nbsp;PVEWINS01N01&amp;nbsp;- Homelab Prod&lt;br&gt;Port 12 -&amp;nbsp;PVEWINS02N01&amp;nbsp;- Homelab Prod&lt;br&gt;Port 13 - DISABLED&lt;br&gt;Port 14 - DISABLED&lt;br&gt;Port 15 - DISABLED&lt;br&gt;Port 16 - DISABLED" style="rounded=0;whiteSpace=wrap;html=1;" parent="1" vertex="1">
          <mxGeometry x="690" y="250" width="220" height="320" as="geometry" />
        </mxCell>
        <mxCell id="3Cw-4gG5DgnAAiXJhuzD-7" value="iMazing&lt;br&gt;OS: Windows 11" style="fontColor=#0066CC;verticalAlign=top;verticalLabelPosition=bottom;labelPosition=center;align=center;html=1;outlineConnect=0;fillColor=#CCCCCC;strokeColor=#6881B3;gradientColor=none;gradientDirection=north;strokeWidth=2;shape=mxgraph.networks.pc;" parent="1" vertex="1">
          <mxGeometry x="-313.25" y="1110" width="100" height="70" as="geometry" />
        </mxCell>
        <mxCell id="3Cw-4gG5DgnAAiXJhuzD-9" value="PVEWINS02N01&lt;br&gt;10.30.1.8" style="fontColor=#0066CC;verticalAlign=top;verticalLabelPosition=bottom;labelPosition=center;align=center;html=1;outlineConnect=0;fillColor=#CCCCCC;strokeColor=#6881B3;gradientColor=none;gradientDirection=north;strokeWidth=2;shape=mxgraph.networks.pc;" parent="1" vertex="1">
          <mxGeometry x="125" y="1110" width="100" height="70" as="geometry" />
        </mxCell>
        <mxCell id="3Cw-4gG5DgnAAiXJhuzD-10" value="PVEWINS01N01&lt;br&gt;10.30.1.7" style="fontColor=#0066CC;verticalAlign=top;verticalLabelPosition=bottom;labelPosition=center;align=center;html=1;outlineConnect=0;fillColor=#CCCCCC;strokeColor=#6881B3;gradientColor=none;gradientDirection=north;strokeWidth=2;shape=mxgraph.networks.pc;" parent="1" vertex="1">
          <mxGeometry x="-98.25" y="1110" width="100" height="70" as="geometry" />
        </mxCell>
        <mxCell id="DS62mD8kwUzjUs2PWBs1-11" style="edgeStyle=orthogonalEdgeStyle;rounded=0;orthogonalLoop=1;jettySize=auto;html=1;entryX=0.5;entryY=0.07;entryDx=0;entryDy=0;entryPerimeter=0;" parent="1" source="byq1uEG9fYWj8Y68o5DE-19" target="3Cw-4gG5DgnAAiXJhuzD-9" edge="1">
          <mxGeometry relative="1" as="geometry">
            <mxPoint x="940" y="1115" as="targetPoint" />
            <Array as="points">
              <mxPoint x="930" y="180" />
              <mxPoint x="930" y="1030" />
              <mxPoint x="175" y="1030" />
            </Array>
            <mxPoint x="860" y="190" as="sourcePoint" />
          </mxGeometry>
        </mxCell>
        <mxCell id="DS62mD8kwUzjUs2PWBs1-12" style="edgeStyle=orthogonalEdgeStyle;rounded=0;orthogonalLoop=1;jettySize=auto;html=1;entryX=0.5;entryY=0.07;entryDx=0;entryDy=0;entryPerimeter=0;" parent="1" source="byq1uEG9fYWj8Y68o5DE-19" target="3Cw-4gG5DgnAAiXJhuzD-10" edge="1">
          <mxGeometry relative="1" as="geometry">
            <mxPoint x="185" y="1125" as="targetPoint" />
            <Array as="points">
              <mxPoint x="930" y="180" />
              <mxPoint x="930" y="1030" />
              <mxPoint x="-48" y="1030" />
            </Array>
            <mxPoint x="870" y="200" as="sourcePoint" />
          </mxGeometry>
        </mxCell>
        <mxCell id="N55vdIAXIWPODo43Zf60-1" value="iMazing&lt;br&gt;OS: Windows 11" style="fontColor=#0066CC;verticalAlign=top;verticalLabelPosition=bottom;labelPosition=center;align=center;html=1;outlineConnect=0;fillColor=#CCCCCC;strokeColor=#6881B3;gradientColor=none;gradientDirection=north;strokeWidth=2;shape=mxgraph.networks.pc;" parent="1" vertex="1">
          <mxGeometry x="-313.25" y="860" width="100" height="70" as="geometry" />
        </mxCell>
        <mxCell id="N55vdIAXIWPODo43Zf60-2" style="edgeStyle=orthogonalEdgeStyle;rounded=0;orthogonalLoop=1;jettySize=auto;html=1;" parent="1" edge="1">
          <mxGeometry relative="1" as="geometry">
            <mxPoint x="-260" y="1110" as="targetPoint" />
            <Array as="points">
              <mxPoint x="930" y="180" />
              <mxPoint x="930" y="1030" />
              <mxPoint x="-260" y="1030" />
            </Array>
            <mxPoint x="850" y="180" as="sourcePoint" />
          </mxGeometry>
        </mxCell>
        <mxCell id="bxJ8q7e_Gtw-y1UCTTLB-1" value="Port 01 - Switch Office - Management&lt;br&gt;Port 02 - None - IOT&lt;br&gt;Port 03 - XBOX Series X - IOT&lt;br&gt;Port 04 - PlayStation 5 - IOT&lt;br&gt;Port 05 - Philips HUE - IOT&lt;div&gt;&lt;br&gt;&lt;/div&gt;" style="rounded=0;whiteSpace=wrap;html=1;" parent="1" vertex="1">
          <mxGeometry x="1030" y="250" width="220" height="320" as="geometry" />
        </mxCell>
        <mxCell id="g4_kVLmmQvrEP-61XqL9-1" style="edgeStyle=orthogonalEdgeStyle;rounded=0;orthogonalLoop=1;jettySize=auto;html=1;exitX=0.5;exitY=1;exitDx=0;exitDy=0;" parent="1" source="Kpg3dx4X_OknJsl86Vrg-1" target="Kpg3dx4X_OknJsl86Vrg-1" edge="1">
          <mxGeometry relative="1" as="geometry" />
        </mxCell>
      </root>
    </mxGraphModel>
  </diagram>
</mxfile>
